<mxfile host="app.diagrams.net" agent="Mozilla/5.0 (Windows NT 10.0; Win64; x64) AppleWebKit/537.36 (KHTML, like Gecko) Chrome/136.0.0.0 Safari/537.36" version="27.0.9">
  <diagram id="C5RBs43oDa-KdzZeNtuy" name="Page-1">
    <mxGraphModel dx="815" dy="444" grid="1" gridSize="10" guides="1" tooltips="1" connect="1" arrows="1" fold="1" page="1" pageScale="1" pageWidth="827" pageHeight="1169" math="0" shadow="0">
      <root>
        <mxCell id="WIyWlLk6GJQsqaUBKTNV-0" />
        <mxCell id="WIyWlLk6GJQsqaUBKTNV-1" parent="WIyWlLk6GJQsqaUBKTNV-0" />
        <mxCell id="f0JRwleMgveNQKI5Twcg-31" style="edgeStyle=orthogonalEdgeStyle;rounded=0;orthogonalLoop=1;jettySize=auto;html=1;exitX=0.25;exitY=1;exitDx=0;exitDy=0;entryX=0.25;entryY=0;entryDx=0;entryDy=0;" parent="WIyWlLk6GJQsqaUBKTNV-1" source="f0JRwleMgveNQKI5Twcg-9" target="f0JRwleMgveNQKI5Twcg-11" edge="1">
          <mxGeometry relative="1" as="geometry" />
        </mxCell>
        <mxCell id="f0JRwleMgveNQKI5Twcg-9" value="RaspBerry&lt;div&gt;&lt;font style=&quot;font-size: 9px;&quot;&gt;(processamento central)&lt;/font&gt;&lt;/div&gt;" style="rounded=0;whiteSpace=wrap;html=1;fillColor=#fff2cc;strokeColor=#d6b656;" parent="WIyWlLk6GJQsqaUBKTNV-1" vertex="1">
          <mxGeometry x="359" y="230" width="120" height="100" as="geometry" />
        </mxCell>
        <mxCell id="f0JRwleMgveNQKI5Twcg-15" style="edgeStyle=orthogonalEdgeStyle;rounded=0;orthogonalLoop=1;jettySize=auto;html=1;exitX=0.5;exitY=0;exitDx=0;exitDy=0;" parent="WIyWlLk6GJQsqaUBKTNV-1" source="f0JRwleMgveNQKI5Twcg-11" target="f0JRwleMgveNQKI5Twcg-9" edge="1">
          <mxGeometry relative="1" as="geometry" />
        </mxCell>
        <mxCell id="f0JRwleMgveNQKI5Twcg-19" style="edgeStyle=orthogonalEdgeStyle;rounded=0;orthogonalLoop=1;jettySize=auto;html=1;exitX=0;exitY=1;exitDx=0;exitDy=0;entryX=1;entryY=0.5;entryDx=0;entryDy=0;" parent="WIyWlLk6GJQsqaUBKTNV-1" source="f0JRwleMgveNQKI5Twcg-11" target="f0JRwleMgveNQKI5Twcg-18" edge="1">
          <mxGeometry relative="1" as="geometry">
            <Array as="points">
              <mxPoint x="359" y="470" />
            </Array>
          </mxGeometry>
        </mxCell>
        <mxCell id="4ZVVzbSNH417x32Cz1Ww-3" style="edgeStyle=orthogonalEdgeStyle;rounded=0;orthogonalLoop=1;jettySize=auto;html=1;exitX=1;exitY=0.5;exitDx=0;exitDy=0;" parent="WIyWlLk6GJQsqaUBKTNV-1" source="f0JRwleMgveNQKI5Twcg-11" target="f0JRwleMgveNQKI5Twcg-29" edge="1">
          <mxGeometry relative="1" as="geometry" />
        </mxCell>
        <mxCell id="4ZVVzbSNH417x32Cz1Ww-4" style="edgeStyle=orthogonalEdgeStyle;rounded=0;orthogonalLoop=1;jettySize=auto;html=1;exitX=1;exitY=0.5;exitDx=0;exitDy=0;entryX=0.5;entryY=0;entryDx=0;entryDy=0;" parent="WIyWlLk6GJQsqaUBKTNV-1" source="f0JRwleMgveNQKI5Twcg-11" target="f0JRwleMgveNQKI5Twcg-27" edge="1">
          <mxGeometry relative="1" as="geometry" />
        </mxCell>
        <mxCell id="sXNVJpdnQU7vgdt3Imi0-3" style="edgeStyle=orthogonalEdgeStyle;rounded=0;orthogonalLoop=1;jettySize=auto;html=1;entryX=0.5;entryY=0;entryDx=0;entryDy=0;" edge="1" parent="WIyWlLk6GJQsqaUBKTNV-1" source="f0JRwleMgveNQKI5Twcg-11" target="sXNVJpdnQU7vgdt3Imi0-2">
          <mxGeometry relative="1" as="geometry" />
        </mxCell>
        <mxCell id="f0JRwleMgveNQKI5Twcg-11" value="Mini Esp32" style="rounded=0;whiteSpace=wrap;html=1;fillColor=#fff2cc;strokeColor=#d6b656;" parent="WIyWlLk6GJQsqaUBKTNV-1" vertex="1">
          <mxGeometry x="359" y="380" width="120" height="60" as="geometry" />
        </mxCell>
        <mxCell id="f0JRwleMgveNQKI5Twcg-22" style="edgeStyle=orthogonalEdgeStyle;rounded=0;orthogonalLoop=1;jettySize=auto;html=1;exitX=0.5;exitY=1;exitDx=0;exitDy=0;" parent="WIyWlLk6GJQsqaUBKTNV-1" source="f0JRwleMgveNQKI5Twcg-12" target="f0JRwleMgveNQKI5Twcg-18" edge="1">
          <mxGeometry relative="1" as="geometry">
            <Array as="points">
              <mxPoint x="419" y="670" />
              <mxPoint x="285" y="670" />
            </Array>
          </mxGeometry>
        </mxCell>
        <mxCell id="4ZVVzbSNH417x32Cz1Ww-2" style="edgeStyle=orthogonalEdgeStyle;rounded=0;orthogonalLoop=1;jettySize=auto;html=1;exitX=1;exitY=0.5;exitDx=0;exitDy=0;entryX=0.5;entryY=1;entryDx=0;entryDy=0;" parent="WIyWlLk6GJQsqaUBKTNV-1" source="f0JRwleMgveNQKI5Twcg-12" target="f0JRwleMgveNQKI5Twcg-29" edge="1">
          <mxGeometry relative="1" as="geometry" />
        </mxCell>
        <mxCell id="sXNVJpdnQU7vgdt3Imi0-4" style="edgeStyle=orthogonalEdgeStyle;rounded=0;orthogonalLoop=1;jettySize=auto;html=1;entryX=0.5;entryY=1;entryDx=0;entryDy=0;" edge="1" parent="WIyWlLk6GJQsqaUBKTNV-1" source="f0JRwleMgveNQKI5Twcg-12" target="sXNVJpdnQU7vgdt3Imi0-2">
          <mxGeometry relative="1" as="geometry" />
        </mxCell>
        <mxCell id="sXNVJpdnQU7vgdt3Imi0-5" style="edgeStyle=orthogonalEdgeStyle;rounded=0;orthogonalLoop=1;jettySize=auto;html=1;" edge="1" parent="WIyWlLk6GJQsqaUBKTNV-1" source="f0JRwleMgveNQKI5Twcg-12" target="f0JRwleMgveNQKI5Twcg-27">
          <mxGeometry relative="1" as="geometry" />
        </mxCell>
        <mxCell id="f0JRwleMgveNQKI5Twcg-12" value="Bateria 5MHA" style="rounded=0;whiteSpace=wrap;html=1;fillColor=#f8cecc;strokeColor=#b85450;" parent="WIyWlLk6GJQsqaUBKTNV-1" vertex="1">
          <mxGeometry x="359" y="640" width="120" height="60" as="geometry" />
        </mxCell>
        <mxCell id="f0JRwleMgveNQKI5Twcg-14" style="edgeStyle=orthogonalEdgeStyle;rounded=0;orthogonalLoop=1;jettySize=auto;html=1;exitX=1;exitY=0.5;exitDx=0;exitDy=0;entryX=0;entryY=0;entryDx=0;entryDy=0;" parent="WIyWlLk6GJQsqaUBKTNV-1" source="f0JRwleMgveNQKI5Twcg-13" target="f0JRwleMgveNQKI5Twcg-9" edge="1">
          <mxGeometry relative="1" as="geometry" />
        </mxCell>
        <mxCell id="f0JRwleMgveNQKI5Twcg-13" value="Bateria 7,5MHA" style="rounded=0;whiteSpace=wrap;html=1;fillColor=#f8cecc;strokeColor=#b85450;" parent="WIyWlLk6GJQsqaUBKTNV-1" vertex="1">
          <mxGeometry x="205" y="160" width="120" height="60" as="geometry" />
        </mxCell>
        <mxCell id="f0JRwleMgveNQKI5Twcg-21" style="edgeStyle=orthogonalEdgeStyle;rounded=0;orthogonalLoop=1;jettySize=auto;html=1;exitX=0;exitY=0.5;exitDx=0;exitDy=0;" parent="WIyWlLk6GJQsqaUBKTNV-1" source="f0JRwleMgveNQKI5Twcg-18" target="f0JRwleMgveNQKI5Twcg-20" edge="1">
          <mxGeometry relative="1" as="geometry" />
        </mxCell>
        <mxCell id="f0JRwleMgveNQKI5Twcg-18" value="Driver" style="shape=trapezoid;perimeter=trapezoidPerimeter;whiteSpace=wrap;html=1;fixedSize=1;" parent="WIyWlLk6GJQsqaUBKTNV-1" vertex="1">
          <mxGeometry x="245" y="450" width="80" height="40" as="geometry" />
        </mxCell>
        <mxCell id="f0JRwleMgveNQKI5Twcg-20" value="Motores de&amp;nbsp;&lt;div&gt;Passo (Garra)&lt;/div&gt;" style="shape=step;perimeter=stepPerimeter;whiteSpace=wrap;html=1;fixedSize=1;fillColor=#e1d5e7;strokeColor=#9673a6;" parent="WIyWlLk6GJQsqaUBKTNV-1" vertex="1">
          <mxGeometry x="80" y="430" width="120" height="80" as="geometry" />
        </mxCell>
        <mxCell id="f0JRwleMgveNQKI5Twcg-26" style="edgeStyle=orthogonalEdgeStyle;rounded=0;orthogonalLoop=1;jettySize=auto;html=1;exitX=0.5;exitY=1;exitDx=0;exitDy=0;entryX=0.5;entryY=0;entryDx=0;entryDy=0;" parent="WIyWlLk6GJQsqaUBKTNV-1" source="f0JRwleMgveNQKI5Twcg-25" target="f0JRwleMgveNQKI5Twcg-9" edge="1">
          <mxGeometry relative="1" as="geometry" />
        </mxCell>
        <mxCell id="f0JRwleMgveNQKI5Twcg-25" value="Camêra" style="rounded=1;whiteSpace=wrap;html=1;fillColor=#d5e8d4;strokeColor=#82b366;" parent="WIyWlLk6GJQsqaUBKTNV-1" vertex="1">
          <mxGeometry x="355" y="100" width="76" height="40" as="geometry" />
        </mxCell>
        <mxCell id="f0JRwleMgveNQKI5Twcg-27" value="&lt;font style=&quot;font-size: 11px;&quot;&gt;Motores da Garra&amp;nbsp;&amp;nbsp;&lt;/font&gt;" style="shape=step;perimeter=stepPerimeter;whiteSpace=wrap;html=1;fixedSize=1;align=right;fillColor=#e1d5e7;strokeColor=#9673a6;" parent="WIyWlLk6GJQsqaUBKTNV-1" vertex="1">
          <mxGeometry x="565" y="540" width="120" height="60" as="geometry" />
        </mxCell>
        <mxCell id="f0JRwleMgveNQKI5Twcg-29" value="&lt;span style=&quot;font-size: 11px;&quot;&gt;Ventosas&lt;/span&gt;" style="shape=step;perimeter=stepPerimeter;whiteSpace=wrap;html=1;fixedSize=1;align=center;" parent="WIyWlLk6GJQsqaUBKTNV-1" vertex="1">
          <mxGeometry x="485" y="460" width="120" height="60" as="geometry" />
        </mxCell>
        <mxCell id="sXNVJpdnQU7vgdt3Imi0-1" style="edgeStyle=orthogonalEdgeStyle;rounded=0;orthogonalLoop=1;jettySize=auto;html=1;entryX=0.75;entryY=0;entryDx=0;entryDy=0;" edge="1" parent="WIyWlLk6GJQsqaUBKTNV-1" source="sXNVJpdnQU7vgdt3Imi0-0" target="f0JRwleMgveNQKI5Twcg-9">
          <mxGeometry relative="1" as="geometry" />
        </mxCell>
        <mxCell id="sXNVJpdnQU7vgdt3Imi0-0" value="Camêra" style="rounded=1;whiteSpace=wrap;html=1;fillColor=#d5e8d4;strokeColor=#82b366;" vertex="1" parent="WIyWlLk6GJQsqaUBKTNV-1">
          <mxGeometry x="455" y="100" width="76" height="40" as="geometry" />
        </mxCell>
        <mxCell id="sXNVJpdnQU7vgdt3Imi0-2" value="&lt;font style=&quot;font-size: 11px;&quot;&gt;Motores robô&amp;nbsp;&amp;nbsp;&lt;/font&gt;" style="shape=step;perimeter=stepPerimeter;whiteSpace=wrap;html=1;fixedSize=1;align=center;fillColor=#e1d5e7;strokeColor=#9673a6;" vertex="1" parent="WIyWlLk6GJQsqaUBKTNV-1">
          <mxGeometry x="359" y="520" width="120" height="60" as="geometry" />
        </mxCell>
      </root>
    </mxGraphModel>
  </diagram>
</mxfile>
